<svg aria-hidden="true" role="img" focusable="false" width="100%" height="100%" viewBox="0 0 237 237"><path class="$illu_class" d="M171.816,134.679l-18.543,-0c0,-0 -45.644,14.399 0,72.4l18.543,0c45.644,-58.001 0,-72.4 0,-72.4Zm-9.271,-18.946l-0,17.593m-0,-97.549l-0,4.06m-20.197,187.542m0,-9.256l39.306,0m-18.565,-103.179l56.788,0l-35.832,-69.694l-43,0l-35.833,69.694l56.789,0m-130.218,-50.79c-0,0 9.398,-7.163 18.328,-1.449c8.929,5.715 18.468,5.061 22.465,1.004m-68.284,32.421l77.548,0l10.546,13.649l-88.094,-0m0.078,22.913l46.451,0c-0,0 25.435,-2.441 17.991,20.203c-4.5,13.689 -16.13,20.163 -0.621,65.451l14.269,0c0,0 -11.167,-27.297 -5.583,-46.529c5.583,-19.232 13.648,-28.848 4.963,-37.223l-0,-23.575m-77.548,10.108l19.349,-0m28.375,-30.332l10.376,-0l11.433,-28.786c0,-18.86 -14.292,-19.852 -14.292,-19.852l0,-9.926l-15.033,-0l-0,9.926c-0,-0 -14.293,0.992 -14.293,19.852l11.434,28.786l10.375,-0m-9.153,-67.878l18.25,0" /></svg>