<svg aria-hidden="true" role="img" focusable="false" width="100%" height="100%" viewBox="0 0 237 237"><circle class="$rahmen_class" cx="118.5" cy="118.5" r="118" /><path class="$illu_class" d="M118.11,127.584c46.055,-0 83.39,-14.925 83.39,-33.335c-0,-18.41 -37.335,-33.334 -83.39,-33.334c-46.055,-0 -83.39,14.924 -83.39,33.334c0,18.41 37.335,33.335 83.39,33.335Zm-82.978,-17.664c-0.272,1.097 -0.412,2.209 -0.412,3.334c0,18.41 37.335,33.335 83.39,33.335c46.055,-0 83.39,-14.925 83.39,-33.335c-0,-1.104 -0.134,-2.196 -0.397,-3.273m-165.971,19.977c-0.272,1.097 -0.412,2.209 -0.412,3.334c0,18.41 37.335,33.334 83.39,33.334c46.055,0 83.39,-14.924 83.39,-33.334c-0,-1.104 -0.134,-2.196 -0.397,-3.273m-165.971,19.977c-0.272,1.097 -0.412,2.209 -0.412,3.334c0,18.41 37.335,33.334 83.39,33.334c46.055,0 83.39,-14.924 83.39,-33.334c-0,-1.104 -0.134,-2.196 -0.397,-3.273m-34.149,-46.503c0.164,-0.68 0.248,-1.37 0.248,-2.067c-0,-11.415 -22.423,-20.668 -50.083,-20.668c-27.66,0 -50.083,9.253 -50.083,20.668c0,0.684 0.081,1.361 0.239,2.029"/></svg>